<?xml version="1.0" standalone="no"?>
<!DOCTYPE svg PUBLIC "-//W3C//DTD SVG 20010904//EN"
 "http://www.w3.org/TR/2001/REC-SVG-20010904/DTD/svg10.dtd">
<svg version="1.0" xmlns="http://www.w3.org/2000/svg"
 width="500.000000pt" height="500.000000pt" viewBox="0 0 500.000000 500.000000"
 preserveAspectRatio="xMidYMid meet">
<metadata>
Created by potrace 1.16, written by Peter Selinger 2001-2019
</metadata>
<g transform="translate(0.000000,500.000000) scale(0.100000,-0.100000)"
fill="#000000" stroke="none">
<path d="M3380 4763 c-14 -9 -43 -33 -66 -52 -66 -58 -803 -728 -879 -800 -39
-36 -138 -127 -220 -201 -82 -74 -183 -166 -225 -205 -42 -38 -141 -128 -220
-200 -79 -71 -176 -160 -215 -197 -39 -38 -78 -68 -86 -68 -8 0 -42 22 -75 48
-32 26 -104 81 -159 123 -55 41 -194 147 -308 234 -285 219 -300 228 -368 233
-74 6 -116 -16 -227 -121 -49 -45 -116 -107 -149 -137 -68 -61 -90 -111 -79
-186 9 -67 24 -88 130 -183 55 -50 152 -136 214 -193 62 -57 179 -164 262
-238 82 -74 149 -137 149 -141 1 -3 -161 -152 -359 -333 -198 -180 -368 -339
-378 -354 -21 -33 -24 -157 -3 -193 20 -35 294 -280 342 -306 50 -27 117 -30
161 -7 34 18 290 206 323 237 11 11 36 29 55 42 32 20 168 123 355 268 129
100 108 99 211 5 49 -44 136 -124 193 -177 57 -53 107 -98 111 -101 7 -5 129
-116 295 -270 44 -41 148 -136 230 -210 82 -74 179 -162 215 -196 36 -33 162
-148 280 -255 118 -108 275 -250 349 -317 147 -134 180 -151 250 -132 51 13
87 43 111 91 19 37 20 60 20 586 l-1 548 -177 133 c-97 73 -213 159 -257 192
-44 33 -116 88 -159 123 -44 34 -107 82 -141 107 -69 50 -440 331 -521 395
-29 22 -75 56 -103 75 -28 19 -50 40 -50 45 0 6 73 64 162 130 89 66 186 139
217 163 30 23 120 92 200 152 80 60 169 128 198 150 89 70 431 328 534 404
l98 71 -3 565 -2 566 -23 29 c-54 69 -156 97 -212 58z"/>
</g>
</svg>
